<?xml version="1.0" encoding="UTF-8" standalone="no"?>
<svg
   width="539.01575"
   height="635.15533"
   version="1.1"
   id="svg3103"
   sodipodi:docname="nand2.svg"
   inkscape:version="1.2.2 (b0a8486541, 2022-12-01)"
   xmlns:inkscape="http://www.inkscape.org/namespaces/inkscape"
   xmlns:sodipodi="http://sodipodi.sourceforge.net/DTD/sodipodi-0.dtd"
   xmlns="http://www.w3.org/2000/svg"
   xmlns:svg="http://www.w3.org/2000/svg">
  <defs
     id="defs3107">
    <clipPath
       clipPathUnits="userSpaceOnUse"
       id="clipPath3111">
      <rect
         style="opacity:0.69;fill:#ffffff;stroke-width:0.787595"
         id="rect3113"
         width="539.01575"
         height="635.15533"
         x="274.69305"
         y="2.1101444" />
    </clipPath>
  </defs>
  <sodipodi:namedview
     id="namedview3105"
     pagecolor="#ffffff"
     bordercolor="#000000"
     borderopacity="0.25"
     inkscape:showpageshadow="2"
     inkscape:pageopacity="0.0"
     inkscape:pagecheckerboard="0"
     inkscape:deskcolor="#d1d1d1"
     showgrid="false"
     inkscape:zoom="1.0446147"
     inkscape:cx="358.02674"
     inkscape:cy="323.56427"
     inkscape:window-width="1504"
     inkscape:window-height="1002"
     inkscape:window-x="0"
     inkscape:window-y="0"
     inkscape:window-maximized="1"
     inkscape:current-layer="svg3103" />
  <style
     type="text/css"
     id="style2885">
.l0{
 fill: #000000;
  stroke: #000000;
  stroke-linecap:round;
  stroke-linejoin:round;
  stroke-width: 1.98199;
}
.l1{
 fill: #00ccee;
  stroke: #00ccee;
  stroke-linecap:round;
  stroke-linejoin:round;
  stroke-width: 1.98199;
}
.l2{
  fill: none;
  stroke: #3f3f3f;
  stroke-linecap:round;
  stroke-linejoin:round;
  stroke-width: 1.98199;
}
.l3{
 fill: #cccccc; fill-opacity: 0.5;
  stroke: #cccccc;
  stroke-linecap:round;
  stroke-linejoin:round;
  stroke-width: 1.98199;
}
.l4{
 fill: #88dd00;
  stroke: #88dd00;
  stroke-linecap:round;
  stroke-linejoin:round;
  stroke-width: 1.98199;
}
.l5{
 fill: #bb2200;
  stroke: #bb2200;
  stroke-linecap:round;
  stroke-linejoin:round;
  stroke-width: 1.98199;
}
.l6{
 fill: #00ccee; fill-opacity: 0.5;
  stroke: #00ccee;
  stroke-linecap:round;
  stroke-linejoin:round;
  stroke-width: 1.98199;
}
.l7{
 fill: #ff0000; fill-opacity: 0.5;
  stroke: #ff0000;
  stroke-linecap:round;
  stroke-linejoin:round;
  stroke-width: 1.98199;
}
.l8{
 fill: #ffff00; fill-opacity: 0.5;
  stroke: #ffff00;
  stroke-linecap:round;
  stroke-linejoin:round;
  stroke-width: 1.98199;
}
.l9{
 fill: #ffffff; fill-opacity: 0.5;
  stroke: #ffffff;
  stroke-linecap:round;
  stroke-linejoin:round;
  stroke-width: 1.98199;
}
.l10{
 fill: #ff00ff;
  stroke: #ff00ff;
  stroke-linecap:round;
  stroke-linejoin:round;
  stroke-width: 1.98199;
}
.l11{
 fill: #00ff00; fill-opacity: 0.5;
  stroke: #00ff00;
  stroke-linecap:round;
  stroke-linejoin:round;
  stroke-width: 1.98199;
}
.l12{
 fill: #0044dd; fill-opacity: 0.5;
  stroke: #0044dd;
  stroke-linecap:round;
  stroke-linejoin:round;
  stroke-width: 1.98199;
}
.l13{
 fill: #aaaa00; fill-opacity: 0.5;
  stroke: #aaaa00;
  stroke-linecap:round;
  stroke-linejoin:round;
  stroke-width: 1.98199;
}
.l14{
  fill: none;
  stroke: #aaccaa;
  stroke-linecap:round;
  stroke-linejoin:round;
  stroke-width: 1.98199;
}
.l15{
 fill: #ff7777; fill-opacity: 0.5;
  stroke: #ff7777;
  stroke-linecap:round;
  stroke-linejoin:round;
  stroke-width: 1.98199;
}
.l16{
 fill: #bfff81; fill-opacity: 0.5;
  stroke: #bfff81;
  stroke-linecap:round;
  stroke-linejoin:round;
  stroke-width: 1.98199;
}
.l17{
  fill: none;
  stroke: #00ffcc;
  stroke-linecap:round;
  stroke-linejoin:round;
  stroke-width: 1.98199;
}
.l18{
 fill: #ce0097; fill-opacity: 0.5;
  stroke: #ce0097;
  stroke-linecap:round;
  stroke-linejoin:round;
  stroke-width: 1.98199;
}
.l19{
  fill: none;
  stroke: #d2d46b;
  stroke-linecap:round;
  stroke-linejoin:round;
  stroke-width: 1.98199;
}
.l20{
  fill: none;
  stroke: #ef6158;
  stroke-linecap:round;
  stroke-linejoin:round;
  stroke-width: 1.98199;
}
.l21{
  fill: none;
  stroke: #fdb200;
  stroke-linecap:round;
  stroke-linejoin:round;
  stroke-width: 1.98199;
}
text {font-family: Sans-Serif;}
</style>
  <rect
     class="l0"
     x="0"
     y="0"
     width="1210"
     height="639"
     id="rect2887"
     clip-path="url(#clipPath3111)"
     transform="translate(-274.69305,-2.1101444)" />
  <text
     fill="#00ccee"
     xml:space="preserve"
     font-size="31.4916px"
     id="text2889"
     x="449.92294"
     y="247.61586">Y</text>
  <text
     fill="#00ccee"
     xml:space="preserve"
     font-size="31.4916px"
     id="text2891"
     x="154.94095"
     y="614.65088">B</text>
  <text
     fill="#00ccee"
     xml:space="preserve"
     font-size="31.4916px"
     id="text2893"
     x="26.478947"
     y="321.02286">A</text>
  <text
     fill="#00ccee"
     xml:space="preserve"
     font-size="31.4916px"
     transform="rotate(-90)"
     id="text2895"
     x="-51.848656"
     y="277.79596">VP</text>
  <text
     fill="#00ccee"
     xml:space="preserve"
     font-size="31.4916px"
     transform="rotate(-90)"
     id="text2897"
     x="-592.77185"
     y="276.08395">VN</text>
  <text
     fill="#cccccc"
     xml:space="preserve"
     font-size="19.0858px"
     id="text2899"
     x="275.58194"
     y="301.05286">M1</text>
  <text
     fill="#cccccc"
     xml:space="preserve"
     font-size="19.0858px"
     id="text2901"
     x="275.58194"
     y="328.57986">nfet_01v8</text>
  <text
     fill="#aaaa00"
     xml:space="preserve"
     font-size="19.0858px"
     id="text2903"
     x="275.58194"
     y="356.10785">1 x 1 / 0.15</text>
  <text
     fill="#cccccc"
     xml:space="preserve"
     font-size="19.0858px"
     id="text2905"
     x="275.58194"
     y="429.51486">M2</text>
  <text
     fill="#cccccc"
     xml:space="preserve"
     font-size="19.0858px"
     id="text2907"
     x="275.58194"
     y="457.04187">nfet_01v8</text>
  <text
     fill="#aaaa00"
     xml:space="preserve"
     font-size="19.0858px"
     id="text2909"
     x="275.58194"
     y="484.56985">1 x 1 / 0.15</text>
  <text
     fill="#cccccc"
     xml:space="preserve"
     font-size="19.0858px"
     id="text2911"
     x="147.11995"
     y="126.71085">M3</text>
  <text
     fill="#cccccc"
     xml:space="preserve"
     font-size="19.0858px"
     id="text2913"
     x="147.11995"
     y="154.23886">pfet_01v8</text>
  <text
     fill="#aaaa00"
     xml:space="preserve"
     font-size="19.0858px"
     id="text2915"
     x="147.11995"
     y="181.76585">1 x 1 / 0.15</text>
  <text
     fill="#cccccc"
     xml:space="preserve"
     font-size="19.0858px"
     id="text2917"
     x="357.69196"
     y="209.40186">M4</text>
  <text
     fill="#cccccc"
     xml:space="preserve"
     font-size="19.0858px"
     id="text2919"
     x="290.69196"
     y="181.87486">pfet_01v8</text>
  <text
     fill="#aaaa00"
     xml:space="preserve"
     font-size="19.0858px"
     id="text2921"
     x="278.69196"
     y="154.34686">1 x 1 / 0.15</text>
  <path
     class="l4"
     d="m 266.40595,253.43086 v 27.528"
     id="path2923" />
  <path
     class="l4"
     d="m 238.87795,280.95886 h 27.528"
     id="path2925" />
  <path
     class="l4"
     d="m 238.87795,270.63586 v 75.701"
     id="path2927" />
  <path
     class="l4"
     d="m 238.87795,336.01386 h 27.528"
     id="path2929" />
  <path
     class="l4"
     d="m 266.40595,336.01386 v 27.528"
     id="path2931" />
  <path
     class="l4"
     d="m 238.87795,308.48586 h 27.528"
     id="path2933" />
  <path
     class="l4"
     d="m 231.99595,280.95886 v 55.055"
     id="path2935" />
  <path
     class="l4"
     d="m 211.35095,308.48586 h 20.645"
     id="path2937" />
  <path
     class="l4"
     d="m 266.40595,381.89286 v 27.528"
     id="path2939" />
  <path
     class="l4"
     d="m 238.87795,409.42086 h 27.528"
     id="path2941" />
  <path
     class="l4"
     d="m 238.87795,399.09786 v 75.701"
     id="path2943" />
  <path
     class="l4"
     d="m 238.87795,464.47586 h 27.528"
     id="path2945" />
  <path
     class="l4"
     d="m 266.40595,464.47586 v 27.528"
     id="path2947" />
  <path
     class="l4"
     d="m 238.87795,436.94886 h 27.528"
     id="path2949" />
  <path
     class="l4"
     d="m 231.99595,409.42086 v 55.055"
     id="path2951" />
  <path
     class="l4"
     d="m 211.35095,436.94886 h 20.645"
     id="path2953" />
  <path
     class="l4"
     d="m 137.94395,106.61686 v 27.528"
     id="path2955" />
  <path
     class="l4"
     d="m 110.41595,134.14486 h 27.528"
     id="path2957" />
  <path
     class="l4"
     d="m 110.41595,123.82186 v 75.701"
     id="path2959" />
  <path
     class="l4"
     d="m 110.41595,189.19986 h 27.528"
     id="path2961" />
  <path
     class="l4"
     d="m 137.94395,189.19986 v 27.528"
     id="path2963" />
  <path
     class="l4"
     d="m 110.41595,161.67286 h 27.528"
     id="path2965" />
  <path
     class="l4"
     d="m 103.53395,134.14486 v 55.055"
     id="path2967" />
  <path
     class="l4"
     d="m 82.888946,161.67286 h 10.322"
     id="path2969" />
  <circle
     class="l4"
     cx="98.372955"
     cy="161.67287"
     r="5.1614299"
     style="fill:none"
     id="circle2971" />
  <path
     class="l4"
     d="m 394.86795,189.19986 v 27.528"
     id="path2973" />
  <path
     class="l4"
     d="m 394.86795,189.19986 h 27.528"
     id="path2975" />
  <path
     class="l4"
     d="m 422.39595,123.82186 v 75.701"
     id="path2977" />
  <path
     class="l4"
     d="m 394.86795,134.14486 h 27.528"
     id="path2979" />
  <path
     class="l4"
     d="m 394.86795,106.61686 v 27.528"
     id="path2981" />
  <path
     class="l4"
     d="m 394.86795,161.67286 h 27.528"
     id="path2983" />
  <path
     class="l4"
     d="m 429.27795,134.14486 v 55.055"
     id="path2985" />
  <path
     class="l4"
     d="m 439.59995,161.67286 h 10.323"
     id="path2987" />
  <circle
     class="l4"
     cx="434.43896"
     cy="161.67287"
     r="5.1614299"
     style="fill:none"
     id="circle2989" />
  <path
     class="l5"
     d="m 265.48795,252.51386 h 1.836 v 1.835 h -1.836 z"
     id="path2991" />
  <path
     class="l5"
     d="m 210.43295,307.56886 h 1.835 v 1.835 h -1.835 z"
     id="path2993" />
  <path
     class="l5"
     d="m 265.48795,362.62386 h 1.836 v 1.835 h -1.836 z"
     id="path2995" />
  <path
     class="l5"
     d="m 265.48795,307.56886 h 1.836 v 1.835 h -1.836 z"
     id="path2997" />
  <path
     class="l5"
     d="m 265.48795,380.97586 h 1.836 v 1.835 h -1.836 z"
     id="path2999" />
  <path
     class="l5"
     d="m 210.43295,436.03086 h 1.835 v 1.835 h -1.835 z"
     id="path3001" />
  <path
     class="l5"
     d="m 265.48795,491.08586 h 1.836 v 1.835 h -1.836 z"
     id="path3003" />
  <path
     class="l5"
     d="m 265.48795,436.03086 h 1.836 v 1.835 h -1.836 z"
     id="path3005" />
  <path
     class="l5"
     d="m 137.02595,215.80986 h 1.835 v 1.835 h -1.835 z"
     id="path3007" />
  <path
     class="l5"
     d="m 81.970946,160.75486 h 1.835 v 1.835 h -1.835 z"
     id="path3009" />
  <path
     class="l5"
     d="m 137.02595,105.69986 h 1.835 v 1.835 h -1.835 z"
     id="path3011" />
  <path
     class="l5"
     d="m 137.02595,160.75486 h 1.835 v 1.835 h -1.835 z"
     id="path3013" />
  <path
     class="l5"
     d="m 393.95095,105.69986 h 1.835 v 1.835 h -1.835 z"
     id="path3015" />
  <path
     class="l5"
     d="m 449.00595,160.75486 h 1.835 v 1.835 h -1.835 z"
     id="path3017" />
  <path
     class="l5"
     d="m 393.95095,215.80986 h 1.835 v 1.835 h -1.835 z"
     id="path3019" />
  <path
     class="l5"
     d="m 393.95095,160.75486 h 1.835 v 1.835 h -1.835 z"
     id="path3021" />
  <path
     class="l5"
     d="m 413.21995,235.07986 h 16.058"
     id="path3023" />
  <path
     class="l5"
     d="m 445.33495,235.07986 -6.882,-9.176 h -16.057 l 6.882,9.176 -6.882,9.175 h 16.057 l 6.882,-9.175"
     id="path3025" />
  <path
     class="l5"
     d="m 410.92595,232.78586 h 4.588 v 4.588 h -4.588 z"
     id="path3027" />
  <path
     class="l5"
     d="m 202.17495,602.11386 h 9.176"
     id="path3029" />
  <path
     class="l5"
     d="m 202.17495,602.11386 -6.882,-9.176 h -16.058 l 6.882,9.176 -6.882,9.176 h 16.058 l 6.882,-9.176"
     id="path3031" />
  <path
     class="l5"
     d="m 209.05695,599.81986 h 4.588 v 4.588 h -4.588 z"
     id="path3033" />
  <path
     class="l5"
     d="m 73.712946,308.48586 h 9.176"
     id="path3035" />
  <path
     class="l5"
     d="m 73.712946,308.48586 -6.882,-9.175 h -16.058 l 6.882,9.175 -6.882,9.176 h 16.058 l 6.882,-9.176"
     id="path3037" />
  <path
     class="l5"
     d="m 80.594946,306.19286 h 4.588 v 4.587 h -4.588 z"
     id="path3039" />
  <path
     class="l5"
     d="m 266.40595,82.530556 v 5.7349"
     id="path3041" />
  <path
     class="l5"
     d="m 275.58195,63.031856 -9.176,-6.8819 -9.176,6.8819 v 12.6168 l 9.176,6.8819 9.176,-6.8819 v -12.6168"
     id="path3043" />
  <path
     class="l5"
     d="m 264.11195,85.971556 h 4.588 v 4.5879 h -4.588 z"
     id="path3045" />
  <path
     class="l5"
     d="m 266.40595,510.35586 v 5.735"
     id="path3047" />
  <path
     class="l5"
     d="m 257.22995,535.58886 9.176,6.882 9.176,-6.882 v -12.617 l -9.176,-6.881 -9.176,6.881 v 12.617"
     id="path3049" />
  <path
     class="l5"
     d="m 264.11195,508.06186 h 4.588 v 4.588 h -4.588 z"
     id="path3051" />
  <path
     class="l1"
     d="m 266.40595,235.07986 v 18.351"
     id="path3053" />
  <path
     class="l1"
     d="m 394.86795,216.72786 v 18.352"
     id="path3055" />
  <path
     class="l1"
     d="m 137.94395,235.07986 h 256.924"
     id="path3057" />
  <path
     class="l1"
     d="m 137.94395,216.72786 v 18.352"
     id="path3059" />
  <path
     class="l1"
     d="m 266.40595,363.54186 v 18.351"
     id="path3061" />
  <path
     class="l1"
     d="m 82.888946,161.67286 v 146.813"
     id="path3063" />
  <path
     class="l1"
     d="m 137.94395,106.61686 v 55.056"
     id="path3065" />
  <path
     class="l1"
     d="m 137.94395,106.61686 h 256.924"
     id="path3067" />
  <path
     class="l1"
     d="m 394.86795,106.61686 v 55.056"
     id="path3069" />
  <path
     class="l1"
     d="M 266.40595,88.265456 V 106.61686"
     id="path3071" />
  <path
     class="l1"
     d="m 266.40595,436.94886 v 73.407"
     id="path3073" />
  <path
     class="l1"
     d="m 449.92295,161.67286 h 55.056"
     id="path3075" />
  <path
     class="l1"
     d="m 394.86795,235.07986 h 18.352"
     id="path3077" />
  <path
     class="l1"
     d="M 82.888946,308.48586 H 211.35095"
     id="path3079" />
  <path
     class="l1"
     d="m 211.35095,436.94886 v 165.165"
     id="path3081" />
  <path
     class="l1"
     d="m 211.35095,602.11386 h 293.628"
     id="path3083" />
  <path
     class="l1"
     d="m 504.97895,161.67286 v 440.441"
     id="path3085" />
  <path
     class="l1"
     d="m 266.40595,308.48586 h 128.462"
     id="path3087" />
  <path
     class="l1"
     d="m 394.86795,308.48586 v 128.463"
     id="path3089" />
  <path
     class="l1"
     d="m 266.40595,436.94886 h 128.462"
     id="path3091" />
  <circle
     class="l1"
     cx="394.86792"
     cy="235.07986"
     r="7.3406901"
     id="circle3093" />
  <circle
     class="l1"
     cx="266.40594"
     cy="106.61685"
     r="7.3406901"
     id="circle3095" />
  <circle
     class="l1"
     cx="394.86792"
     cy="235.07986"
     r="7.3406901"
     id="circle3097" />
  <circle
     class="l1"
     cx="394.86792"
     cy="235.07986"
     r="7.3406901"
     id="circle3099" />
  <circle
     class="l1"
     cx="266.40594"
     cy="235.07986"
     r="7.3406901"
     id="circle3101" />
</svg>
