<svg xmlns="http://www.w3.org/2000/svg" xmlns:xlink="http://www.w3.org/1999/xlink" width="1210" height="639" version="1.1">
<style type="text/css">
.l0{
 fill: #000000;
  stroke: #000000;
  stroke-linecap:round;
  stroke-linejoin:round;
  stroke-width: 1.98199;
}
.l1{
 fill: #00ccee;
  stroke: #00ccee;
  stroke-linecap:round;
  stroke-linejoin:round;
  stroke-width: 1.98199;
}
.l2{
  fill: none;
  stroke: #3f3f3f;
  stroke-linecap:round;
  stroke-linejoin:round;
  stroke-width: 1.98199;
}
.l3{
 fill: #cccccc; fill-opacity: 0.5;
  stroke: #cccccc;
  stroke-linecap:round;
  stroke-linejoin:round;
  stroke-width: 1.98199;
}
.l4{
 fill: #88dd00;
  stroke: #88dd00;
  stroke-linecap:round;
  stroke-linejoin:round;
  stroke-width: 1.98199;
}
.l5{
 fill: #bb2200;
  stroke: #bb2200;
  stroke-linecap:round;
  stroke-linejoin:round;
  stroke-width: 1.98199;
}
.l6{
 fill: #00ccee; fill-opacity: 0.5;
  stroke: #00ccee;
  stroke-linecap:round;
  stroke-linejoin:round;
  stroke-width: 1.98199;
}
.l7{
 fill: #ff0000; fill-opacity: 0.5;
  stroke: #ff0000;
  stroke-linecap:round;
  stroke-linejoin:round;
  stroke-width: 1.98199;
}
.l8{
 fill: #ffff00; fill-opacity: 0.5;
  stroke: #ffff00;
  stroke-linecap:round;
  stroke-linejoin:round;
  stroke-width: 1.98199;
}
.l9{
 fill: #ffffff; fill-opacity: 0.5;
  stroke: #ffffff;
  stroke-linecap:round;
  stroke-linejoin:round;
  stroke-width: 1.98199;
}
.l10{
 fill: #ff00ff;
  stroke: #ff00ff;
  stroke-linecap:round;
  stroke-linejoin:round;
  stroke-width: 1.98199;
}
.l11{
 fill: #00ff00; fill-opacity: 0.5;
  stroke: #00ff00;
  stroke-linecap:round;
  stroke-linejoin:round;
  stroke-width: 1.98199;
}
.l12{
 fill: #0044dd; fill-opacity: 0.5;
  stroke: #0044dd;
  stroke-linecap:round;
  stroke-linejoin:round;
  stroke-width: 1.98199;
}
.l13{
 fill: #aaaa00; fill-opacity: 0.5;
  stroke: #aaaa00;
  stroke-linecap:round;
  stroke-linejoin:round;
  stroke-width: 1.98199;
}
.l14{
  fill: none;
  stroke: #aaccaa;
  stroke-linecap:round;
  stroke-linejoin:round;
  stroke-width: 1.98199;
}
.l15{
 fill: #ff7777; fill-opacity: 0.5;
  stroke: #ff7777;
  stroke-linecap:round;
  stroke-linejoin:round;
  stroke-width: 1.98199;
}
.l16{
 fill: #bfff81; fill-opacity: 0.5;
  stroke: #bfff81;
  stroke-linecap:round;
  stroke-linejoin:round;
  stroke-width: 1.98199;
}
.l17{
  fill: none;
  stroke: #00ffcc;
  stroke-linecap:round;
  stroke-linejoin:round;
  stroke-width: 1.98199;
}
.l18{
 fill: #ce0097; fill-opacity: 0.5;
  stroke: #ce0097;
  stroke-linecap:round;
  stroke-linejoin:round;
  stroke-width: 1.98199;
}
.l19{
  fill: none;
  stroke: #d2d46b;
  stroke-linecap:round;
  stroke-linejoin:round;
  stroke-width: 1.98199;
}
.l20{
  fill: none;
  stroke: #ef6158;
  stroke-linecap:round;
  stroke-linejoin:round;
  stroke-width: 1.98199;
}
.l21{
  fill: none;
  stroke: #fdb200;
  stroke-linecap:round;
  stroke-linejoin:round;
  stroke-width: 1.98199;
}
text {font-family: Sans-Serif;}
</style>
<rect class="l0" x="0" y="0" width="1210" height="639"/>
<text fill="#00ccee"  xml:space="preserve" font-size="31.4916" transform="translate(724.616, 249.726)" >Y</text>
<text fill="#00ccee"  xml:space="preserve" font-size="31.4916" transform="translate(429.634, 616.761)" >B</text>
<text fill="#00ccee"  xml:space="preserve" font-size="31.4916" transform="translate(301.172, 323.133)" >A</text>
<text fill="#00ccee"  xml:space="preserve" font-size="31.4916" transform="translate(552.489, 53.9588) rotate(270)" >VP</text>
<text fill="#00ccee"  xml:space="preserve" font-size="31.4916" transform="translate(550.777, 594.882) rotate(270)" >VN</text>
<text fill="#cccccc"  xml:space="preserve" font-size="19.0858" transform="translate(550.275, 303.163)" >M1</text>
<text fill="#cccccc"  xml:space="preserve" font-size="19.0858" transform="translate(550.275, 330.69)" >nfet_01v8</text>
<text fill="#aaaa00"  xml:space="preserve" font-size="19.0858" transform="translate(550.275, 358.218)" >1 x 1 / 0.15</text>
<text fill="#cccccc"  xml:space="preserve" font-size="19.0858" transform="translate(550.275, 431.625)" >M2</text>
<text fill="#cccccc"  xml:space="preserve" font-size="19.0858" transform="translate(550.275, 459.152)" >nfet_01v8</text>
<text fill="#aaaa00"  xml:space="preserve" font-size="19.0858" transform="translate(550.275, 486.68)" >1 x 1 / 0.15</text>
<text fill="#cccccc"  xml:space="preserve" font-size="19.0858" transform="translate(421.813, 128.821)" >M3</text>
<text fill="#cccccc"  xml:space="preserve" font-size="19.0858" transform="translate(421.813, 156.349)" >pfet_01v8</text>
<text fill="#aaaa00"  xml:space="preserve" font-size="19.0858" transform="translate(421.813, 183.876)" >1 x 1 / 0.15</text>
<text fill="#cccccc"  xml:space="preserve" font-size="19.0858" transform="translate(632.385, 211.512)" >M4</text>
<text fill="#cccccc"  xml:space="preserve" font-size="19.0858" transform="translate(565.385, 183.985)" >pfet_01v8</text>
<text fill="#aaaa00"  xml:space="preserve" font-size="19.0858" transform="translate(553.385, 156.457)" >1 x 1 / 0.15</text>
<path class="l4" d="M541.099 255.541L541.099 283.069"/>
<path class="l4" d="M513.571 283.069L541.099 283.069"/>
<path class="l4" d="M513.571 272.746L513.571 348.447"/>
<path class="l4" d="M513.571 338.124L541.099 338.124"/>
<path class="l4" d="M541.099 338.124L541.099 365.652"/>
<path class="l4" d="M513.571 310.596L541.099 310.596"/>
<path class="l4" d="M506.689 283.069L506.689 338.124"/>
<path class="l4" d="M486.044 310.596L506.689 310.596"/>
<path class="l4" d="M541.099 384.003L541.099 411.531"/>
<path class="l4" d="M513.571 411.531L541.099 411.531"/>
<path class="l4" d="M513.571 401.208L513.571 476.909"/>
<path class="l4" d="M513.571 466.586L541.099 466.586"/>
<path class="l4" d="M541.099 466.586L541.099 494.114"/>
<path class="l4" d="M513.571 439.059L541.099 439.059"/>
<path class="l4" d="M506.689 411.531L506.689 466.586"/>
<path class="l4" d="M486.044 439.059L506.689 439.059"/>
<path class="l4" d="M412.637 108.727L412.637 136.255"/>
<path class="l4" d="M385.109 136.255L412.637 136.255"/>
<path class="l4" d="M385.109 125.932L385.109 201.633"/>
<path class="l4" d="M385.109 191.31L412.637 191.31"/>
<path class="l4" d="M412.637 191.31L412.637 218.838"/>
<path class="l4" d="M385.109 163.783L412.637 163.783"/>
<path class="l4" d="M378.227 136.255L378.227 191.31"/>
<path class="l4" d="M357.582 163.783L367.904 163.783"/>
<circle class="l4" cx="373.066" cy="163.783" r="5.16143" style="fill:none;"/>
<path class="l4" d="M669.561 191.31L669.561 218.838"/>
<path class="l4" d="M669.561 191.31L697.089 191.31"/>
<path class="l4" d="M697.089 125.932L697.089 201.633"/>
<path class="l4" d="M669.561 136.255L697.089 136.255"/>
<path class="l4" d="M669.561 108.727L669.561 136.255"/>
<path class="l4" d="M669.561 163.783L697.089 163.783"/>
<path class="l4" d="M703.971 136.255L703.971 191.31"/>
<path class="l4" d="M714.293 163.783L724.616 163.783"/>
<circle class="l4" cx="709.132" cy="163.783" r="5.16143" style="fill:none;"/>
<path class="l5" d="M540.181 254.624L542.017 254.624L542.017 256.459L540.181 256.459L540.181 254.624z"/>
<path class="l5" d="M485.126 309.679L486.961 309.679L486.961 311.514L485.126 311.514L485.126 309.679z"/>
<path class="l5" d="M540.181 364.734L542.017 364.734L542.017 366.569L540.181 366.569L540.181 364.734z"/>
<path class="l5" d="M540.181 309.679L542.017 309.679L542.017 311.514L540.181 311.514L540.181 309.679z"/>
<path class="l5" d="M540.181 383.086L542.017 383.086L542.017 384.921L540.181 384.921L540.181 383.086z"/>
<path class="l5" d="M485.126 438.141L486.961 438.141L486.961 439.976L485.126 439.976L485.126 438.141z"/>
<path class="l5" d="M540.181 493.196L542.017 493.196L542.017 495.031L540.181 495.031L540.181 493.196z"/>
<path class="l5" d="M540.181 438.141L542.017 438.141L542.017 439.976L540.181 439.976L540.181 438.141z"/>
<path class="l5" d="M411.719 217.92L413.554 217.92L413.554 219.755L411.719 219.755L411.719 217.92z"/>
<path class="l5" d="M356.664 162.865L358.499 162.865L358.499 164.7L356.664 164.7L356.664 162.865z"/>
<path class="l5" d="M411.719 107.81L413.554 107.81L413.554 109.645L411.719 109.645L411.719 107.81z"/>
<path class="l5" d="M411.719 162.865L413.554 162.865L413.554 164.7L411.719 164.7L411.719 162.865z"/>
<path class="l5" d="M668.644 107.81L670.479 107.81L670.479 109.645L668.644 109.645L668.644 107.81z"/>
<path class="l5" d="M723.699 162.865L725.534 162.865L725.534 164.7L723.699 164.7L723.699 162.865z"/>
<path class="l5" d="M668.644 217.92L670.479 217.92L670.479 219.755L668.644 219.755L668.644 217.92z"/>
<path class="l5" d="M668.644 162.865L670.479 162.865L670.479 164.7L668.644 164.7L668.644 162.865z"/>
<path class="l5" d="M687.913 237.19L703.971 237.19"/>
<path class="l5" d="M720.028 237.19L713.146 228.014L697.089 228.014L703.971 237.19L697.089 246.365L713.146 246.365L720.028 237.19"/>
<path class="l5" d="M685.619 234.896L690.207 234.896L690.207 239.484L685.619 239.484L685.619 234.896z"/>
<path class="l5" d="M476.868 604.224L486.044 604.224"/>
<path class="l5" d="M476.868 604.224L469.986 595.048L453.928 595.048L460.81 604.224L453.928 613.4L469.986 613.4L476.868 604.224"/>
<path class="l5" d="M483.75 601.93L488.338 601.93L488.338 606.518L483.75 606.518L483.75 601.93z"/>
<path class="l5" d="M348.406 310.596L357.582 310.596"/>
<path class="l5" d="M348.406 310.596L341.524 301.421L325.466 301.421L332.348 310.596L325.466 319.772L341.524 319.772L348.406 310.596"/>
<path class="l5" d="M355.288 308.303L359.876 308.303L359.876 312.89L355.288 312.89L355.288 308.303z"/>
<path class="l5" d="M541.099 84.6407L541.099 90.3756"/>
<path class="l5" d="M550.275 65.142L541.099 58.2601L531.923 65.142L531.923 77.7588L541.099 84.6407L550.275 77.7588L550.275 65.142"/>
<path class="l5" d="M538.805 88.0817L543.393 88.0817L543.393 92.6696L538.805 92.6696L538.805 88.0817z"/>
<path class="l5" d="M541.099 512.466L541.099 518.201"/>
<path class="l5" d="M531.923 537.699L541.099 544.581L550.275 537.699L550.275 525.082L541.099 518.201L531.923 525.082L531.923 537.699"/>
<path class="l5" d="M538.805 510.172L543.393 510.172L543.393 514.76L538.805 514.76L538.805 510.172z"/>
<path class="l1" d="M541.099 237.19L541.099 255.541"/>
<path class="l1" d="M669.561 218.838L669.561 237.19"/>
<path class="l1" d="M412.637 237.19L669.561 237.19"/>
<path class="l1" d="M412.637 218.838L412.637 237.19"/>
<path class="l1" d="M541.099 365.652L541.099 384.003"/>
<path class="l1" d="M357.582 163.783L357.582 310.596"/>
<path class="l1" d="M412.637 108.727L412.637 163.783"/>
<path class="l1" d="M412.637 108.727L669.561 108.727"/>
<path class="l1" d="M669.561 108.727L669.561 163.783"/>
<path class="l1" d="M541.099 90.3756L541.099 108.727"/>
<path class="l1" d="M541.099 439.059L541.099 512.466"/>
<path class="l1" d="M724.616 163.783L779.672 163.783"/>
<path class="l1" d="M669.561 237.19L687.913 237.19"/>
<path class="l1" d="M357.582 310.596L486.044 310.596"/>
<path class="l1" d="M486.044 439.059L486.044 604.224"/>
<path class="l1" d="M486.044 604.224L779.672 604.224"/>
<path class="l1" d="M779.672 163.783L779.672 604.224"/>
<path class="l1" d="M541.099 310.596L669.561 310.596"/>
<path class="l1" d="M669.561 310.596L669.561 439.059"/>
<path class="l1" d="M541.099 439.059L669.561 439.059"/>
<circle class="l1" cx="669.561" cy="237.19" r="7.34069"/>
<circle class="l1" cx="541.099" cy="108.727" r="7.34069"/>
<circle class="l1" cx="669.561" cy="237.19" r="7.34069"/>
<circle class="l1" cx="669.561" cy="237.19" r="7.34069"/>
<circle class="l1" cx="541.099" cy="237.19" r="7.34069"/>
</svg>
